# xmcd CD database file
#
# Track frame offsets:
#	150
#	19640
#	39052
#	58592
#
# Disc length: 1040 seconds
#
# Revision: 0
# Processed by: cddbd v1.5.1PL0 Copyright (c) Steve Scherf et al.
# Submitted via: CDex 1.51
#
DISCID=22040e04
DTITLE=無責任艦長タイラー - 千億光年つないで
DYEAR=1994
DGENRE=Anime
TTITLE0=千億光年つないで
TTITLE1=Who are you？明日を越えたら
TTITLE2=千億光年つないで＜OFF VOCAL VERSION＞
TTITLE3=Who are you？明日を越えたら＜OFF VOCAL VERSION＞
EXTD=YEAR: 1994
EXTT0=
EXTT1=
EXTT2=
EXTT3=
PLAYORDER=
